# xmcd
#
# Track frame offsets:
# 150
# 17387
# 33213
# 54472
# 77518
# 98467
# 114390
# 133967
# 151068
# 164874
# 184786
# 203269
# 232707
# 257251
# 274446
# 298607
# 314287
# 334707
#
# Disc length: 4704 seconds
#
#
# Revision: 0
# Processed by: cddbd v1.5.2PL0 Copyright (c) Steve Scherf et al.
# Submitted via: FreeRIP 2.941 
#
DISCID=e0125e12
DTITLE=Vários - Músicas Mandy
DYEAR=2008
DGENRE=Black Metal
TTITLE0=Beutiful girl
TTITLE1=ñ sei
TTITLE2=lagal
TTITLE3=chata
TTITLE4=ótima
TTITLE5=gosto
TTITLE6=Umbrella
TTITLE7=Say ok
TTITLE8=mandy
TTITLE9=deve ser
TTITLE10=deve ser
TTITLE11=Ñ SEI
TTITLE12=ñ sei
TTITLE13=sei lá
TTITLE14=buga
TTITLE15=ñ sei
TTITLE16=oi
TTITLE17=ñ sei
EXTD=Muito legal esse cd!!!
EXTT0=
EXTT1=
EXTT2=
EXTT3=
EXTT4=
EXTT5=
EXTT6=
EXTT7=
EXTT8=
EXTT9=
EXTT10=
EXTT11=
EXTT12=
EXTT13=
EXTT14=
EXTT15=
EXTT16=
EXTT17=
PLAYORDER=
